<svg xmlns="http://www.w3.org/2000/svg" version="1.1" xmlns:xlink="http://www.w3.org/1999/xlink" xmlns:svgjs="http://svgjs.com/svgjs" x="0" y="0" viewBox="0 0 24 24" style="enable-background:new 0 0 512 512" xml:space="preserve"><g><g clip-rule="evenodd" fill="rgb(0,0,0)" fill-rule="evenodd"><path d="m18.2197 3.21967c.2929-.29289.7677-.29289 1.0606 0l2.25 2.25c.2929.29289.2929.76777 0 1.06066l-2.25 2.25c-.2929.29289-.7677.29289-1.0606 0s-.2929-.76777 0-1.06066l1.7196-1.71967-1.7196-1.71967c-.2929-.29289-.2929-.76777 0-1.06066z" fill="#000000" data-original="#000000"/><path d="m8.99883 5.25h.00117 12c.4142 0 .75.33579.75.75s-.3358.75-.75.75h-11.99939c-1.39183.00232-2.726.55624-3.71018 1.54043-.98432.98431-1.53826 2.31867-1.54043 3.71077-.00065.4142-.33696.7494-.75117.7488s-.74947-.337-.74883-.7512c.00279-1.789.71472-3.50398 1.97977-4.76903 1.26504-1.26505 2.98002-1.97698 4.76906-1.97977z" fill="#000000" data-original="#000000"/><path d="m5.78033 15.2197c.29289.2929.29289.7677 0 1.0606l-1.71967 1.7197 1.71967 1.7197c.29289.2929.29289.7677 0 1.0606s-.76777.2929-1.06066 0l-2.25-2.25c-.29289-.2929-.29289-.7677 0-1.0606l2.25-2.25c.29289-.2929.76777-.2929 1.06066 0z" fill="#000000" data-original="#000000"/><path d="m21.0012 11.25c.4142.0006.7494.337.7488.7512-.0028 1.789-.7147 3.504-1.9798 4.769-1.265 1.2651-2.98 1.977-4.769 1.9798h-12.0012c-.41421 0-.75-.3358-.75-.75s.33579-.75.75-.75h11.9994c1.3918-.0023 2.726-.5563 3.7102-1.5404.9843-.9843 1.5382-2.3187 1.5404-3.7108.0006-.4142.337-.7494.7512-.7488z" fill="#000000" data-original="#000000"/><path d="m12.7695 9.11201c.2211.13666.3557.37806.3557.63799v4.5c0 .4142-.3358.75-.75.75s-.75-.3358-.75-.75v-3.2865l-.4146.2073c-.3705.1853-.821.0351-1.0063-.3354-.1852-.3705-.035-.821.3355-1.00622l1.5-.75c.2324-.11625.5086-.10382.7297.03283z" fill="#000000" data-original="#000000"/></g></g></svg>